
<svg width="120" height="120" viewBox="0 0 120 120" fill="none" xmlns="http://www.w3.org/2000/svg">
  <rect width="120" height="120" rx="60" fill="#1A1A1A"/>
  <path d="M45.5 85C39.1487 85 34 79.8513 34 73.5C34 67.1487 39.1487 62 45.5 62C51.8513 62 57 67.1487 57 73.5C57 79.8513 51.8513 85 45.5 85Z" fill="#F4C542"/>
  <path d="M74.5 85C68.1487 85 63 79.8513 63 73.5C63 67.1487 68.1487 62 74.5 62C80.8513 62 86 67.1487 86 73.5C86 79.8513 80.8513 85 74.5 85Z" fill="#F4C542"/>
  <path d="M60 58C53.3726 58 48 52.6274 48 46C48 39.3726 53.3726 34 60 34C66.6274 34 72 39.3726 72 46C72 52.6274 66.6274 58 60 58Z" fill="#F4C542"/>
  <path d="M33 53C33 55.7614 35.2386 58 38 58C40.7614 58 43 55.7614 43 53C43 50.2386 40.7614 48 38 48C35.2386 48 33 50.2386 33 53Z" fill="#DFAF2B"/>
  <path d="M77 53C77 55.7614 79.2386 58 82 58C84.7614 58 87 55.7614 87 53C87 50.2386 84.7614 48 82 48C79.2386 48 77 50.2386 77 53Z" fill="#DFAF2B"/>
  <path d="M49 32C49 34.7614 51.2386 37 54 37C56.7614 37 59 34.7614 59 32C59 29.2386 56.7614 27 54 27C51.2386 27 49 29.2386 49 32Z" fill="#DFAF2B"/>
  <path d="M61 32C61 34.7614 63.2386 37 66 37C68.7614 37 71 34.7614 71 32C71 29.2386 68.7614 27 66 27C63.2386 27 61 29.2386 61 32Z" fill="#DFAF2B"/>
</svg>
